<?xml version="1.0" encoding="utf-8"?>
<svg version="1.1" xmlns="http://www.w3.org/2000/svg" xmlns:xlink="http://www.w3.org/1999/xlink" x="0px" y="0px"
	 viewBox="0 0 342.7 342.7" style="enable-background:new 0 0 342.7 342.7;" xml:space="preserve">
	<style type="text/css">
		.st0{display:none;}
		.st1{display:inline;}
		.st2{fill:#333333;stroke:#333333;stroke-width:4;stroke-miterlimit:10;}
		.st3{fill:#333333;stroke:#333333;stroke-miterlimit:10;}
		.st4{fill:#333333;}
	</style>
	<g id="Capa_1">
		<path class="st3" d="M291.2,90.5v8.9h-11.7c14.8,21.3,23.5,47.1,23.5,75C302.9,247,244,306,171.3,306
			c-40.8,0-77.3-18.6-101.4-47.8v21.6c26.3,25.3,62.1,40.9,101.4,40.9c80.8,0,146.3-65.5,146.3-146.3
			C317.6,143.2,307.8,114.2,291.2,90.5z"/>
		<path class="st3" d="M42.3,238.4h14c-10.6-18.9-16.6-40.8-16.6-64c0-72.7,58.9-131.6,131.6-131.6c35.9,0,68.5,14.4,92.2,37.8V60.9
			c-25.2-20.5-57.3-32.8-92.2-32.8c-80.8,0-146.3,65.5-146.3,146.3c0,24.9,6.3,48.4,17.3,69V238.4z"/>
	</g>
	<g id="Layer_2">
		<path class="st4" d="M126.7,228.6l-6.5,6.5c-0.9,0.9-1.9,1.3-3,1.3c-1.1,0-2.1-0.4-3-1.3l-60.8-60.7c-0.9-0.9-1.3-1.9-1.3-3
			c0-1.1,0.4-2.1,1.3-3l60.7-60.8c0.9-0.9,1.9-1.3,3-1.3s2.1,0.4,3,1.3l6.5,6.5c0.9,0.9,1.3,1.9,1.3,3s-0.4,2.1-1.3,3l-51.2,51.3
			l51.3,51.2c0.9,0.9,1.3,1.9,1.3,3S127.5,227.8,126.7,228.6z M203.6,89.4l-48.5,168.4c-0.3,1.1-1,2-2,2.5s-2,0.7-3.1,0.3l-8.1-2.2
			c-1.1-0.3-2-1-2.5-2c-0.6-1-0.7-2.1-0.3-3.2l48.5-168.4c0.3-1.1,1-2,2-2.5c1-0.6,2-0.7,3.1-0.3l8.1,2.2c1.1,0.3,2,1,2.5,2
			C203.8,87.2,204,88.3,203.6,89.4z M289.4,174.2l-60.7,60.8c-0.9,0.9-1.9,1.3-3,1.3c-1.1,0-2.1-0.4-3-1.3l-6.5-6.5
			c-0.9-0.9-1.3-1.9-1.3-3c0-1.1,0.4-2.1,1.3-3l51.2-51.3L216,120c-0.9-0.9-1.3-1.9-1.3-3c0-1.1,0.4-2.1,1.3-3l6.5-6.5
			c0.9-0.9,1.9-1.3,3-1.3c1.1,0,2.1,0.4,3,1.3l60.8,60.7c0.9,0.9,1.3,1.9,1.3,3C290.7,172.4,290.2,173.4,289.4,174.2z"/>
	</g>
</svg>
