<?xml version="1.0" encoding="utf-8"?>
<svg version="1.1" id="Capa_1" xmlns="http://www.w3.org/2000/svg" xmlns:xlink="http://www.w3.org/1999/xlink" x="0px" y="0px"
	 viewBox="0 0 342.7 342.7" style="enable-background:new 0 0 342.7 342.7;" xml:space="preserve">
	<style type="text/css">
		.st0{fill:#333333;stroke:#333333;stroke-width:4;stroke-miterlimit:10;}
		.st1{fill:#333333;stroke:#333333;stroke-miterlimit:10;}
	</style>
	<g>
		<polygon class="st0" points="235.3,69 221.5,84.6 239.3,89.4 		"/>
		<polygon class="st0" points="241.4,106 211.4,97.9 197.4,149.2 229.7,149.2 		"/>
		<path class="st0" d="M117.5,123.3c-1.6,0-3.3-0.1-5.2-0.2l5.4,26.2h15.5l-5.7-27.7C124.4,123,120.6,123.3,117.5,123.3z"/>
		<rect x="155.3" y="61" class="st0" width="30.7" height="88.2"/>
		<path class="st0" d="M101.6,157.1V257c0,13.6,11.1,24.7,24.7,24.7h92.6c13.6,0,24.7-11,24.7-24.7v-99.9H101.6z"/>
		<path class="st0" d="M115.7,119.4c0.6,0,1.3,0,1.8,0c4.2,0,7.2-0.6,9.1-1.9c7.5-4.9-0.4-19.7-19.4-49.8c0,0-21.1,49.2,5.1,51.5
			C113.5,119.3,114.6,119.3,115.7,119.4z"/>
	</g>

	<g>
		<path class="st1" d="M291.2,90.5v8.9h-11.7c14.8,21.3,23.5,47.1,23.5,75C302.9,247,244,306,171.3,306c-40.8,0-77.3-18.6-101.4-47.8
			v21.6c26.3,25.3,62.1,40.9,101.4,40.9c80.8,0,146.3-65.5,146.3-146.3C317.6,143.2,307.8,114.2,291.2,90.5z"/>
		<path class="st1" d="M42.3,238.4h14c-10.6-18.9-16.6-40.8-16.6-64c0-72.7,58.9-131.6,131.6-131.6c35.9,0,68.5,14.4,92.2,37.8V60.9
			c-25.2-20.5-57.3-32.8-92.2-32.8c-80.8,0-146.3,65.5-146.3,146.3c0,24.9,6.3,48.4,17.3,69V238.4z"/>
	</g>
</svg>
