<?xml version="1.0" encoding="utf-8"?>
<!-- Generator: Adobe Illustrator 21.1.0, SVG Export Plug-In . SVG Version: 6.00 Build 0)  -->
<svg version="1.1" xmlns="http://www.w3.org/2000/svg" xmlns:xlink="http://www.w3.org/1999/xlink" x="0px" y="0px"
	 viewBox="0 0 512 512" style="enable-background:new 0 0 512 512;" xml:space="preserve">
<style type="text/css">
	.st0{display:none;}
	.st1{display:inline;}
	.st2{fill:#EFEFEF;}
</style>
<g id="Capa_1" class="st0">
	<g class="st1">
		<g>
			<path class="st2" d="M256,0C114.8,0,0,114.8,0,256c0,141.1,114.8,256,256,256c141.1,0,256-114.9,256-256C512,114.8,397.2,0,256,0
				z M370.2,197.4c0.1,2.5,0.2,5.1,0.2,7.7c0,77.9-59.3,167.6-167.7,167.6c-33.3,0-64.3-9.7-90.3-26.4c4.6,0.5,9.3,0.8,14.1,0.8
				c27.6,0,53-9.4,73.2-25.2c-25.8-0.5-47.5-17.5-55-40.9c3.6,0.7,7.3,1.1,11.1,1.1c5.4,0,10.6-0.7,15.5-2.1
				c-27-5.4-47.3-29.2-47.3-57.8c0-0.2,0-0.5,0-0.7c7.9,4.4,17,7.1,26.7,7.4c-15.8-10.5-26.2-28.6-26.2-49c0-10.8,2.9-20.9,8-29.6
				c29,35.7,72.5,59.1,121.4,61.6c-1-4.3-1.5-8.8-1.5-13.4c0-32.5,26.4-58.9,58.9-58.9c17,0,32.2,7.2,43,18.6
				c13.4-2.6,26-7.5,37.4-14.3c-4.4,13.8-13.7,25.3-25.9,32.6c11.9-1.4,23.3-4.6,33.8-9.3C391.7,178.7,381.7,189.1,370.2,197.4z"/>
		</g>
	</g>
</g>
<g id="Layer_2">
	<g>
		<path class="st2" d="M233.6,247.6c0,29.9,6.2,40.6,19.8,40.6c11.4,0,18.5-8.1,22.1-15.9V195c-4.9-2-8.8-2.9-14.3-2.9
			C244.4,192,233.6,205.7,233.6,247.6z"/>
		<path class="st2" d="M257.4-0.6C116-0.6,1.4,114,1.4,255.4s114.6,256,256,256s256-114.6,256-256S398.8-0.6,257.4-0.6z
			 M336.7,321.7c-26,0-40-17.2-43.5-33.1c-7.8,18.2-23.1,31.8-46.5,31.8c-41.3,0-59.5-31.2-59.5-73.1c0-53.3,27.6-87.7,75.7-87.7
			c17.9,0,38.7,4.9,56.2,14.6v80.3c0,27,4.2,35.4,15.3,35.4c15.6,0,27-16.2,27-68.9c0-56.5-31.2-91.3-98.8-91.3
			c-69.9,0-108.9,47.1-108.9,114.7c0,69.2,37.7,112.8,109.2,112.8c22.4,0,47.1-4.9,64-11l12,35.4c-20.5,7.8-49.1,13.7-76.4,13.7
			c-94.2,0-155.3-58.8-155.3-150.8c0-88.4,65-152.1,155.7-152.1c92.3,0,144.6,61.4,144.6,128C407.5,279.1,379.6,321.7,336.7,321.7z"
			/>
	</g>
</g>
</svg>
