<svg xmlns="http://www.w3.org/2000/svg" viewBox="0 0 777.5 380"><defs><style>.cls-1{fill:#fff;}</style></defs><title>Asset 1</title><g id="Layer_2" data-name="Layer 2"><g id="Layer_1-2" data-name="Layer 1"><polygon class="cls-1" points="380 0.5 120 0.5 120 0 0 0 0 0.5 0 120.5 0 380 120 380 120 120.5 380 120.5 380 0.5"/><rect class="cls-1" x="125" y="126" width="126" height="254"/><polygon class="cls-1" points="669.5 126.42 669.5 187 517 187 517 120.5 777 120.5 777 0.5 517 0.5 517 0 397 0 397 0.5 397 120.5 397 380 517 380 517 313 777.5 313 777.5 187 777.5 126.42 669.5 126.42"/><rect class="cls-1" x="255.75" y="126" width="124.5" height="254"/></g></g></svg>