<?xml version="1.0" encoding="UTF-8"?>
<svg width="646px" height="188px" viewBox="0 0 646 188" version="1.1" xmlns="http://www.w3.org/2000/svg" xmlns:xlink="http://www.w3.org/1999/xlink">
    <!-- Generator: Sketch 46.2 (44496) - http://www.bohemiancoding.com/sketch -->
    <title>name</title>
    <desc>Created with Sketch.</desc>
    <defs></defs>
    <g id="Page-1" stroke="none" stroke-width="1" fill="none" fill-rule="evenodd">
        <g id="name" fill-rule="nonzero" fill="#FFFFFF">
            <polygon id="path1" points="4.78 0 19 0 37.3 84.1 55.72 0 69.8 0 71.72 103.68 60.07 103.68 58.92 28.42 41.38 103.68 33.19 103.68 15.78 28.42 14.63 103.68 2.86 103.68"></polygon>
            <path d="M92.14,102.27 C89.855954,100.621433 88.0286858,98.4190763 86.83,95.87 C85.5626987,93.2797981 84.9058851,90.4336057 84.91,87.55 C84.91,81.75 86.1466667,77.0366667 88.62,73.41 C91.0206989,69.8454823 94.2361519,66.9042684 98,64.83 C103.214054,62.0834843 108.575518,59.6264249 114.06,57.47 L114.06,52.22 C114.06,47.3533333 113.57,43.92 112.59,41.92 C111.61,39.92 109.61,38.92 106.59,38.92 C101.383333,38.92 98.78,42.42 98.78,49.42 L98.78,53.13 L85.21,52.62 L85.34,49.93 C85.7666667,42.5033333 87.8366667,37.1066667 91.55,33.74 C95.2633333,30.3733333 100.576667,28.6866667 107.49,28.68 C114.57,28.68 119.71,30.62 122.91,34.5 C126.11,38.38 127.71,44.2466667 127.71,52.1 L127.71,85.89 C127.738417,91.8419494 128.166043,97.7852901 128.99,103.68 L116.52,103.68 C115.58,98.8133333 114.983333,95.1866667 114.73,92.8 C113.758167,96.0456901 111.922802,98.9663745 109.42,101.25 C106.76655,103.605692 103.30567,104.845304 99.76,104.71 C97.0240949,104.734646 94.3527171,103.879244 92.14,102.27 Z M110.38,90.81 C111.829429,89.6910822 113.083126,88.3393875 114.09,86.81 L114.09,65.81 C110.336667,68.03 107.52,69.7566667 105.64,70.99 C103.679941,72.3115435 102.003779,74.0115048 100.71,75.99 C99.275718,78.1722026 98.5397587,80.7393403 98.6,83.35 C98.6,86.4233333 99.1533333,88.79 100.26,90.45 C101.319207,92.089342 103.170392,93.0415974 105.12,92.95 C107.070962,92.8886741 108.936063,92.1334146 110.38,90.82 L110.38,90.81 Z" id="path2"></path>
            <path d="M141.35,29.7 L155,29.7 L155,40.2 C157.56,36.02 160.183333,33.0766667 162.87,31.37 C165.399215,29.7112362 168.355387,28.8219528 171.38,28.81 C172.10864,28.8087737 172.83667,28.8521884 173.56,28.94 L173.56,44 C171.155603,43.0395475 168.598481,42.5179625 166.01,42.46 C163.899172,42.4171561 161.819219,42.9718101 160.01,44.06 C157.927652,45.5121307 156.212301,47.4294881 155,49.66 L155,103.66 L141.3,103.66 L141.35,29.7 Z" id="path3"></path>
            <path d="M188.46,101.18 C185.239229,98.7361107 182.958061,95.2578591 182,91.33 C180.729735,86.0742688 180.148194,80.6756865 180.27,75.27 L180.27,58.27 C180.140604,52.7484467 180.722042,47.2331852 182,41.86 C182.923715,37.9336284 185.213426,34.4636171 188.46,32.07 C191.613333,29.81 196.093333,28.68 201.9,28.68 C207.186667,28.68 211.303333,29.5333333 214.25,31.24 C217.175073,32.9257063 219.364885,35.643356 220.39,38.86 C221.66873,43.1186401 222.252884,47.5555081 222.12,52 L222.12,56.35 L209.7,56.35 L209.7,51.84 C209.7,46.9733333 209.166667,43.58 208.1,41.66 C207.033333,39.74 205,38.78 202,38.78 C199.693333,38.78 197.986667,39.2933333 196.88,40.32 C195.599061,41.6982883 194.793052,43.4504837 194.58,45.32 C194.100719,48.6641392 193.906686,52.0429791 194,55.42 L194,78.72 C193.916004,82.001218 194.174063,85.2822599 194.77,88.51 C195.033626,90.3304234 195.916522,92.0043932 197.27,93.25 C198.71892,94.2317681 200.453456,94.7032241 202.2,94.59 C205.353333,94.59 207.4,93.5433333 208.34,91.45 C209.28,89.3566667 209.75,86.1366667 209.75,81.79 L209.75,75.79 L222.17,75.79 L222.17,80.9 C222.17,88.9 220.696667,94.8733333 217.75,98.82 C214.803333,102.766667 209.52,104.726667 201.9,104.7 C196.093333,104.7 191.613333,103.526667 188.46,101.18 Z" id="path4"></path>
            <path d="M237.8,97.73 C234.513333,93.0633333 232.87,86.3 232.87,77.44 L232.87,55.94 C232.87,47.0666667 234.513333,40.3033333 237.8,35.65 C241.086667,30.9966667 246.653333,28.6633333 254.5,28.65 C262.266667,28.65 267.793333,30.9833333 271.08,35.65 C274.366667,40.3166667 276.006667,47.08 276,55.94 L276,77.44 C276,86.3133333 274.356667,93.0766667 271.07,97.73 C267.783333,102.383333 262.256667,104.716667 254.49,104.73 C246.65,104.71 241.086667,102.376667 237.8,97.73 Z M259.88,92.42 C261.020612,90.840362 261.711779,88.9811217 261.88,87.04 C262.170684,84.1494904 262.297553,81.2448464 262.26,78.34 L262.26,55.17 C262.296407,52.2418765 262.169543,49.3140002 261.88,46.4 C261.717975,44.4390749 261.026734,42.5588998 259.88,40.96 C258.766667,39.5133333 256.973333,38.7866667 254.5,38.78 C252.026667,38.7733333 250.213333,39.5133333 249.06,41 C247.883123,42.5726357 247.169576,44.4430978 247,46.4 C246.710457,49.3140002 246.583593,52.2418765 246.62,55.17 L246.62,78.34 C246.583953,81.231512 246.710821,84.1227589 247,87 C247.183093,88.9561481 247.914448,90.8209317 249.11,92.38 C250.263333,93.8333333 252.076667,94.56 254.55,94.56 C257.023333,94.56 258.8,93.8466667 259.88,92.42 Z" id="path5"></path>
            <path d="M319,0 L344.73,0 C353.69,0 360.196667,2.43333333 364.25,7.3 C368.303333,12.1666667 370.33,19.2933333 370.33,28.68 C370.33,37.1266667 368.153333,43.6966667 363.8,48.39 C359.446667,53.0833333 353.133333,55.4166667 344.86,55.39 L333.48,55.39 L333.48,103.65 L319,103.65 L319,0 Z M340.12,45.06 C343.484987,45.1989521 346.847004,44.7210849 350.04,43.65 C352.314653,42.7811858 354.140209,41.0277859 355.1,38.79 C356.126667,36.4833333 356.64,33.15 356.64,28.79 C356.64,23.4966667 356.256667,19.6133333 355.49,17.14 C354.83852,14.7988044 353.172697,12.8724671 350.95,11.89 C348.69,10.8633333 345.126667,10.35 340.26,10.35 L333.48,10.35 L333.48,45.06 L340.12,45.06 Z" id="path6"></path>
            <path d="M382.18,97.73 C378.893333,93.0633333 377.25,86.3 377.25,77.44 L377.25,55.94 C377.25,47.0666667 378.893333,40.3033333 382.18,35.65 C385.466667,30.9966667 391.033333,28.6633333 398.88,28.65 C406.646667,28.65 412.173333,30.9833333 415.46,35.65 C418.746667,40.3166667 420.39,47.08 420.39,55.94 L420.39,77.44 C420.39,86.3133333 418.746667,93.0766667 415.46,97.73 C412.173333,102.383333 406.646667,104.716667 398.88,104.73 C391.033333,104.71 385.466667,102.376667 382.18,97.73 Z M404.26,92.42 C405.400612,90.840362 406.091779,88.9811217 406.26,87.04 C406.551348,84.1495382 406.678219,81.2448566 406.64,78.34 L406.64,55.17 C406.67699,52.2418675 406.550125,49.3139588 406.26,46.4 C406.097975,44.4390749 405.406734,42.5588998 404.26,40.96 C403.153333,39.5133333 401.36,38.7866667 398.88,38.78 C396.4,38.7733333 394.59,39.5133333 393.45,41 C392.248277,42.5783759 391.516861,44.4641133 391.34,46.44 C391.050457,49.3540002 390.923593,52.2818765 390.96,55.21 L390.96,78.34 C390.922447,81.2448464 391.049316,84.1494904 391.34,87.04 C391.523093,88.9961481 392.254448,90.8609317 393.45,92.42 C394.603333,93.8733333 396.416667,94.6 398.89,94.6 C401.363333,94.6 403.153333,93.8733333 404.26,92.42 Z" id="path7"></path>
            <polygon id="path8" points="434.21 0 447.91 0 447.91 103.68 434.21 103.68"></polygon>
            <path d="M469.41,101.44 C466.131278,99.0953274 463.775382,95.6782178 462.75,91.78 C461.47,87.5133333 460.83,81.9666667 460.83,75.14 L460.83,58.24 C460.83,48 462.43,40.5133333 465.63,35.78 C468.83,31.0466667 474.526667,28.68 482.72,28.68 C488.72,28.68 493.22,29.9166667 496.22,32.39 C499.36234,35.0712188 501.481895,38.7557119 502.22,42.82 C503.330447,48.79019 503.823046,54.858875 503.69,60.93 L503.69,66.93 L474.53,66.93 L474.53,76.8 C474.53,81.24 474.636667,84.5733333 474.85,86.8 C474.971584,88.8094575 475.665559,90.7421789 476.85,92.37 C478.003333,93.8633333 479.903333,94.61 482.55,94.61 C485.536667,94.61 487.563333,93.61 488.63,91.61 C489.696667,89.61 490.23,86.56 490.23,82.46 L490.23,78 L503.54,78 L503.54,80.82 C503.54,88.5866667 501.873333,94.5166667 498.54,98.61 C495.206667,102.703333 489.916667,104.75 482.67,104.75 C476.99,104.716667 472.57,103.613333 469.41,101.44 Z M490.27,59.52 L490.27,52.86 C490.27,47.8266667 489.78,44.22 488.8,42.04 C487.82,39.86 485.75,38.7733333 482.59,38.78 C480.771103,38.6514938 478.968913,39.1999866 477.53,40.32 C476.201364,41.6976117 475.367753,43.4773895 475.16,45.38 C474.661947,48.7494216 474.447861,52.1547313 474.52,55.56 L474.52,59.56 L490.27,59.52 Z" id="path9"></path>
            <path d="M523.68,100.29 C521.226667,97.3433333 519.946667,92.9133333 519.84,87 L519.84,38.78 L512,38.78 L512,29.7 L519.81,29.7 L519.81,8.06 L533.51,8.06 L533.51,29.7 L545.41,29.7 L545.41,38.79 L533.51,38.79 L533.51,86.14 C533.51,89.1266667 533.98,91.2166667 534.92,92.41 C535.86,93.6033333 537.653333,94.2 540.3,94.2 C541.974041,94.2043132 543.645839,94.0772565 545.3,93.82 L545.3,103.93 C542.166711,104.420439 539.001362,104.677811 535.83,104.7 C530.203333,104.7 526.153333,103.23 523.68,100.29 Z" id="path10"></path>
            <path d="M563.11,100.29 C560.636667,97.3433333 559.356667,92.9266667 559.27,87.04 L559.27,38.78 L551.46,38.78 L551.46,29.7 L559.27,29.7 L559.27,8.06 L573,8.06 L573,29.7 L584.9,29.7 L584.9,38.79 L573,38.79 L573,86.14 C573,89.1266667 573.47,91.2166667 574.41,92.41 C575.35,93.6033333 577.143333,94.2 579.79,94.2 C581.464041,94.2043132 583.135839,94.0772565 584.79,93.82 L584.79,103.93 C581.656711,104.420439 578.491362,104.677811 575.32,104.7 C569.653333,104.7 565.583333,103.23 563.11,100.29 Z" id="path11"></path>
            <path d="M598.5,97.73 C595.213333,93.0633333 593.57,86.3 593.57,77.44 L593.57,55.94 C593.57,47.0666667 595.213333,40.3033333 598.5,35.65 C601.786667,30.9966667 607.353333,28.6633333 615.2,28.65 C622.966667,28.65 628.493333,30.9833333 631.78,35.65 C635.066667,40.3166667 636.71,47.08 636.71,55.94 L636.71,77.44 C636.71,86.3133333 635.066667,93.0766667 631.78,97.73 C628.493333,102.383333 622.966667,104.716667 615.2,104.73 C607.346667,104.71 601.78,102.376667 598.5,97.73 Z M620.58,92.42 C621.720612,90.840362 622.411779,88.9811217 622.58,87.04 C622.871348,84.1495382 622.998219,81.2448566 622.96,78.34 L622.96,55.17 C622.99699,52.2418675 622.870125,49.3139588 622.58,46.4 C622.417975,44.4390749 621.726734,42.5588998 620.58,40.96 C619.473333,39.5133333 617.68,38.7866667 615.2,38.78 C612.72,38.7733333 610.906667,39.5133333 609.76,41 C608.558277,42.5783759 607.826861,44.4641133 607.65,46.44 C607.360457,49.3540002 607.233593,52.2818765 607.27,55.21 L607.27,78.34 C607.232447,81.2448464 607.359316,84.1494904 607.65,87.04 C607.833093,88.9961481 608.564448,90.8609317 609.76,92.42 C610.913333,93.8733333 612.726667,94.6 615.2,94.6 C617.673333,94.6 619.466667,93.8733333 620.58,92.42 Z" id="path12"></path>
            <polygon id="path13" points="23.53 156.84 5.63 156.84 5.63 175.68 0 175.68 0 133 26.43 133 26.43 137.6 5.63 137.6 5.63 152.22 23.53 152.22"></polygon>
            <path d="M46.88,148.84 C45.9972945,148.696652 45.1042622,148.626413 44.21,148.63 C40.6566667,148.63 38.2433333,150.143333 36.97,153.17 L36.97,175.67 L31.55,175.67 L31.55,144 L36.82,144 L36.91,147.66 C38.4537587,144.957915 41.3591868,143.324572 44.47,143.41 C45.2905053,143.367005 46.1103013,143.507054 46.87,143.82 L46.88,148.84 Z" id="path14"></path>
            <path d="M49.83,159.54 C49.783202,156.64268 50.4096449,153.774051 51.66,151.16 C52.7757512,148.79809 54.5457909,146.805928 56.76,145.42 C59.0073704,144.060981 61.594196,143.367462 64.22,143.42 C68.2033133,143.278029 72.042257,144.920672 74.69,147.9 C77.3566667,150.886667 78.69,154.86 78.69,159.82 L78.69,160.2 C78.7390387,163.068503 78.1337124,165.910459 76.92,168.51 C75.8198549,170.870219 74.0586943,172.860644 71.85,174.24 C69.573507,175.630586 66.9471075,176.34183 64.28,176.29 C60.3059846,176.428578 56.4776005,174.785746 53.84,171.81 C51.1733333,168.823333 49.84,164.866667 49.84,159.94 L49.83,159.54 Z M55.28,160.18 C55.1303151,163.197428 55.9925874,166.178427 57.73,168.65 C59.3000629,170.677916 61.7203285,171.864956 64.285,171.864956 C66.8496715,171.864956 69.2699371,170.677916 70.84,168.65 C72.46,166.49 73.27,163.466667 73.27,159.58 C73.4079966,156.565679 72.5351414,153.591636 70.79,151.13 C69.2647388,149.031505 66.8032854,147.819483 64.21,147.89 C61.6753681,147.810268 59.2609295,148.97084 57.74,151 C56.1,153.153333 55.28,156.213333 55.28,160.18 L55.28,160.18 Z" id="path15"></path>
            <path d="M90.62,144 L90.8,148 C93.044177,145.038973 96.575757,143.338307 100.29,143.43 C106.956667,143.43 110.336667,147.21 110.43,154.77 L110.43,175.72 L105,175.72 L105,154.72 C105.131328,152.892875 104.570922,151.083154 103.43,149.65 C102.135859,148.451794 100.397523,147.852994 98.64,148 C96.9840998,147.963507 95.3593755,148.453725 94,149.4 C92.6645328,150.343475 91.5936773,151.61404 90.89,153.09 L90.89,175.68 L85.49,175.68 L85.49,144 L90.62,144 Z" id="path15"></path>
            <path d="M125.95,136.31 L125.95,144 L131.87,144 L131.87,148.19 L125.95,148.19 L125.95,167.87 C125.87426,168.886046 126.153478,169.896887 126.74,170.73 C127.441936,171.455301 128.434958,171.823086 129.44,171.73 C130.309472,171.6991 131.17372,171.581857 132.02,171.38 L132.02,175.75 C130.665276,176.127373 129.266282,176.322425 127.86,176.33 C125.792437,176.476959 123.77199,175.66583 122.38,174.13 C121.043126,172.335068 120.387464,170.123539 120.53,167.89 L120.53,148.17 L114.76,148.17 L114.76,144 L120.53,144 L120.53,136.32 L125.95,136.31 Z" id="path16"></path>
            <path d="M151.35,176.27 C147.404578,176.406745 143.588305,174.853315 140.86,172 C138.193333,169.18 136.86,165.406667 136.86,160.68 L136.86,159.68 C136.807765,156.772571 137.423576,153.891944 138.66,151.26 C139.757937,148.901293 141.488806,146.893485 143.66,145.46 C145.737777,144.091711 148.17216,143.364873 150.66,143.37 C154.78,143.37 157.983333,144.726667 160.27,147.44 C162.556667,150.153333 163.7,154.04 163.7,159.1 L163.7,161.36 L142.24,161.36 C142.177338,164.161371 143.161433,166.88546 145,169 C146.687741,170.900667 149.129071,171.958455 151.67,171.89 C153.365703,171.943805 155.044569,171.539634 156.53,170.72 C157.882625,169.917576 159.067636,168.861591 160.02,167.61 L163.33,170.19 C160.656667,174.243333 156.663333,176.27 151.35,176.27 Z M150.68,147.85 C148.583668,147.810024 146.573228,148.682066 145.17,150.24 C143.56434,152.120275 142.6009,154.464061 142.42,156.93 L158.3,156.93 L158.3,156.52 C158.29756,154.196588 157.511922,151.941842 156.07,150.12 C154.704014,148.588292 152.720096,147.754312 150.67,147.85 L150.68,147.85 Z" id="path17"></path>
            <path d="M175.11,144 L175.29,148 C177.534177,145.038973 181.065757,143.338307 184.78,143.43 C191.446667,143.43 194.826667,147.21 194.92,154.77 L194.92,175.72 L189.5,175.72 L189.5,154.72 C189.631328,152.892875 189.070922,151.083154 187.93,149.65 C186.634195,148.455417 184.896056,147.860313 183.14,148.01 C181.486393,147.978559 179.865396,148.472211 178.51,149.42 C177.174533,150.363475 176.103677,151.63404 175.4,153.11 L175.4,175.7 L170,175.7 L170,144 L175.11,144 Z" id="path18"></path>
            <path d="M201.77,159.57 C201.77,154.71 202.923333,150.8 205.23,147.84 C207.370771,145.148158 210.582645,143.528378 214.019829,143.407202 C217.457012,143.286025 220.774979,144.675598 223.1,147.21 L223.1,130.68 L228.52,130.68 L228.52,175.68 L223.52,175.68 L223.26,172.28 C221.047106,174.971411 217.689925,176.455247 214.21,176.28 C210.65114,176.347027 207.28656,174.660999 205.21,171.77 C202.896667,168.763333 201.74,164.836667 201.74,159.99 L201.77,159.57 Z M207.19,160.19 C207.19,163.783333 207.933333,166.596667 209.42,168.63 C210.833466,170.602481 213.145435,171.730271 215.57,171.63 C218.788631,171.763984 221.766978,169.932676 223.1,167 L223.1,152.48 C221.712481,149.643185 218.785979,147.888067 215.63,148 C213.170688,147.90274 210.830819,149.063254 209.42,151.08 C207.933333,153.126667 207.19,156.16 207.19,160.18 L207.19,160.19 Z" id="path19"></path>
            <polygon id="path20" points="261.83 162.23 262.65 167.86 263.85 162.79 272.28 133 277 133 285.23 162.77 286.4 167.93 287.31 162.19 294 133 299.65 133 289.31 175.66 284.18 175.66 275.39 144.58 274.72 141.33 274 144.6 264.89 175.68 259.76 175.68 249.46 133 255.09 133"></polygon>
            <path d="M317.26,176.27 C313.314578,176.406745 309.498305,174.853315 306.77,172 C304.103333,169.18 302.77,165.406667 302.77,160.68 L302.77,159.68 C302.717765,156.772571 303.333576,153.891944 304.57,151.26 C305.667937,148.901293 307.398806,146.893485 309.57,145.46 C311.647777,144.091711 314.08216,143.364873 316.57,143.37 C320.69,143.37 323.893333,144.726667 326.18,147.44 C328.466667,150.153333 329.61,154.04 329.61,159.1 L329.61,161.36 L308.14,161.36 C308.090186,164.134616 309.065818,166.830067 310.88,168.93 C312.567741,170.830667 315.009071,171.888455 317.55,171.82 C319.245703,171.873805 320.924569,171.469634 322.41,170.65 C323.762625,169.847576 324.947636,168.791591 325.9,167.54 L329.21,170.12 C326.55,174.22 322.566667,176.27 317.26,176.27 Z M316.59,147.85 C314.493668,147.810024 312.483228,148.682066 311.08,150.24 C309.47434,152.120275 308.5109,154.464061 308.33,156.93 L324.2,156.93 L324.2,156.52 C324.198341,154.196456 323.412617,151.941461 321.97,150.12 C320.606261,148.59108 318.626656,147.757368 316.58,147.85 L316.59,147.85 Z" id="path21"></path>
            <path d="M362.72,160.18 C362.72,165.026667 361.606667,168.916667 359.38,171.85 C357.3,174.725159 353.926688,176.378082 350.38,176.26 C346.775037,176.445773 343.306599,174.859028 341.09,172.01 L340.83,175.67 L335.83,175.67 L335.83,130.67 L341.25,130.67 L341.25,147.46 C343.448627,144.742442 346.808008,143.231649 350.3,143.39 C353.861119,143.251618 357.258958,144.888724 359.37,147.76 C361.57,150.673333 362.67,154.673333 362.67,159.76 L362.72,160.18 Z M357.3,159.56 C357.3,155.866667 356.586667,153.016667 355.16,151.01 C353.761422,149.019976 351.439225,147.887197 349.01,148.01 C345.643626,147.887192 342.560991,149.886307 341.3,153.01 L341.3,166.72 C342.609274,169.826441 345.690165,171.811551 349.06,171.72 C351.461072,171.826658 353.748973,170.694034 355.12,168.72 C356.573333,166.66 357.3,163.61 357.3,159.57 L357.3,159.56 Z" id="path22"></path>
            <path d="M385.25,175.68 L385.25,133 L397.25,133 C400.690224,132.931919 404.086546,133.781 407.09,135.46 C409.934962,137.091023 412.234567,139.526308 413.7,142.46 C415.302749,145.700287 416.111683,149.275364 416.06,152.89 L416.06,155.61 C416.141889,159.272377 415.342804,162.900839 413.73,166.19 C412.266992,169.138481 409.949629,171.57781 407.08,173.19 C403.993329,174.862897 400.53063,175.719966 397.02,175.68 L385.25,175.68 Z M390.88,137.62 L390.88,171.08 L396.8,171.08 C401.133333,171.08 404.506667,169.746667 406.92,167.08 C409.333333,164.413333 410.54,160.573333 410.54,155.56 L410.54,153 C410.54,148.153333 409.403333,144.386667 407.13,141.7 C404.856667,139.013333 401.63,137.65 397.45,137.61 L390.88,137.62 Z" id="path23"></path>
            <path d="M436.9,176.27 C432.958018,176.403865 429.145955,174.850668 426.42,172 C423.753333,169.18 422.42,165.406667 422.42,160.68 L422.42,159.68 C422.367765,156.772571 422.983576,153.891944 424.22,151.26 C425.317937,148.901293 427.048806,146.893485 429.22,145.46 C431.297777,144.091711 433.73216,143.364873 436.22,143.37 C440.34,143.37 443.543333,144.726667 445.83,147.44 C448.116667,150.153333 449.26,154.04 449.26,159.1 L449.26,161.36 L427.79,161.36 C427.740186,164.134616 428.715818,166.830067 430.53,168.93 C432.217741,170.830667 434.659071,171.888455 437.2,171.82 C438.895703,171.873805 440.574569,171.469634 442.06,170.65 C443.412625,169.847576 444.597636,168.791591 445.55,167.54 L448.86,170.12 C446.2,174.22 442.213333,176.27 436.9,176.27 Z M436.23,147.85 C434.133668,147.810024 432.123228,148.682066 430.72,150.24 C429.11434,152.120275 428.1509,154.464061 427.97,156.93 L443.85,156.93 L443.85,156.52 C443.848341,154.196456 443.062617,151.941461 441.62,150.12 C440.256261,148.59108 438.276656,147.757368 436.23,147.85 Z" id="path24"></path>
            <polygon id="path25" points="465.61 168.33 473.47 144 479 144 467.63 175.7 463.5 175.7 452 144 457.54 144"></polygon>
            <path d="M497,176.27 C493.051139,176.409628 489.230654,174.855964 486.5,172 C483.833333,169.18 482.5,165.406667 482.5,160.68 L482.5,159.68 C482.447765,156.772571 483.063576,153.891944 484.3,151.26 C485.397937,148.901293 487.128806,146.893485 489.3,145.46 C491.377777,144.091711 493.81216,143.364873 496.3,143.37 C500.42,143.37 503.623333,144.726667 505.91,147.44 C508.196667,150.153333 509.34,154.04 509.34,159.1 L509.34,161.36 L487.88,161.36 C487.830186,164.134616 488.805818,166.830067 490.62,168.93 C492.307741,170.830667 494.749071,171.888455 497.29,171.82 C498.985703,171.873805 500.664569,171.469634 502.15,170.65 C503.502625,169.847576 504.687636,168.791591 505.64,167.54 L508.95,170.12 C506.316667,174.22 502.333333,176.27 497,176.27 Z M496.33,147.85 C494.233668,147.810024 492.223228,148.682066 490.82,150.24 C489.21434,152.120275 488.2509,154.464061 488.07,156.93 L503.95,156.93 L503.95,156.52 C503.948341,154.196456 503.162617,151.941461 501.72,150.12 C500.354014,148.588292 498.370096,147.754312 496.32,147.85 L496.33,147.85 Z" id="path26"></path>
            <polygon id="path27" points="521.51 175.68 516.09 175.68 516.09 130.68 521.51 130.68"></polygon>
            <path d="M528.75,159.54 C528.703202,156.64268 529.329645,153.774051 530.58,151.16 C531.696224,148.798402 533.466156,146.80636 535.68,145.42 C537.92737,144.060981 540.514196,143.367462 543.14,143.42 C547.123313,143.278029 550.962257,144.920672 553.61,147.9 C556.276667,150.886667 557.61,154.86 557.61,159.82 L557.61,160.2 C557.659039,163.068503 557.053712,165.910459 555.84,168.51 C554.739855,170.870219 552.978694,172.860644 550.77,174.24 C548.493507,175.630586 545.867107,176.34183 543.2,176.29 C539.225985,176.428578 535.397601,174.785746 532.76,171.81 C530.093333,168.823333 528.76,164.866667 528.76,159.94 L528.75,159.54 Z M534.2,160.18 C534.050315,163.197428 534.912587,166.178427 536.65,168.65 C538.220063,170.677916 540.640328,171.864956 543.205,171.864956 C545.769672,171.864956 548.189937,170.677916 549.76,168.65 C551.38,166.49 552.19,163.466667 552.19,159.58 C552.327997,156.565679 551.455141,153.591636 549.71,151.13 C548.184739,149.031505 545.723285,147.819483 543.13,147.89 C540.580891,147.828836 538.163608,149.020665 536.66,151.08 C535.02,153.18 534.2,156.213333 534.2,160.18 L534.2,160.18 Z" id="path28"></path>
            <path d="M591.18,160.18 C591.18,165.006667 590.076667,168.893333 587.87,171.84 C585.799336,174.727361 582.420843,176.386577 578.87,176.26 C575.452255,176.435361 572.130754,175.096518 569.79,172.6 L569.79,187.86 L564.4,187.86 L564.4,144 L569.4,144 L569.66,147.52 C571.901486,144.769786 575.316223,143.248001 578.86,143.42 C582.383304,143.303234 585.742226,144.911784 587.86,147.73 C590.08,150.603333 591.19,154.603333 591.19,159.73 L591.18,160.18 Z M585.76,159.56 C585.76,155.986667 584.996667,153.163333 583.47,151.09 C582.038163,149.062347 579.68072,147.893024 577.2,147.98 C574.101025,147.883499 571.225339,149.58631 569.82,152.35 L569.82,167.5 C571.243093,170.272206 574.146402,171.965803 577.26,171.84 C579.714098,171.914971 582.042336,170.754607 583.46,168.75 C584.993333,166.69 585.76,163.63 585.76,159.57 L585.76,159.56 Z" id="path29"></path>
            <path d="M611.22,176.27 C607.274578,176.406745 603.458305,174.853315 600.73,172 C598.063333,169.18 596.73,165.406667 596.73,160.68 L596.73,159.68 C596.677765,156.772571 597.293576,153.891944 598.53,151.26 C599.627937,148.901293 601.358806,146.893485 603.53,145.46 C605.607777,144.091711 608.04216,143.364873 610.53,143.37 C614.65,143.37 617.853333,144.726667 620.14,147.44 C622.426667,150.153333 623.57,154.04 623.57,159.1 L623.57,161.36 L602.11,161.36 C602.060186,164.134616 603.035818,166.830067 604.85,168.93 C606.537741,170.830667 608.979071,171.888455 611.52,171.82 C613.215703,171.873805 614.894569,171.469634 616.38,170.65 C617.732625,169.847576 618.917636,168.791591 619.87,167.54 L623.18,170.12 C620.52,174.22 616.533333,176.27 611.22,176.27 Z M610.55,147.85 C608.453668,147.810024 606.443228,148.682066 605.04,150.24 C603.43434,152.120275 602.4709,154.464061 602.29,156.93 L618.17,156.93 L618.17,156.52 C618.168341,154.196456 617.382617,151.941461 615.94,150.12 C614.576261,148.59108 612.596656,147.757368 610.55,147.85 L610.55,147.85 Z" id="path30"></path>
            <path d="M645.18,148.84 C644.2973,148.696606 643.404264,148.626368 642.51,148.63 C638.956667,148.63 636.543333,150.143333 635.27,153.17 L635.27,175.67 L629.85,175.67 L629.85,144 L635.12,144 L635.21,147.66 C636.753759,144.957915 639.659187,143.324572 642.77,143.41 C643.590505,143.367005 644.410301,143.507054 645.17,143.82 L645.18,148.84 Z" id="path31"></path>
        </g>
    </g>
</svg>